<svg width="66" height="56" viewBox="0 0 66 56" fill="none" xmlns="http://www.w3.org/2000/svg">
<path fill-rule="evenodd" clip-rule="evenodd" d="M14.5746 0C16.4636 0 18.3115 0.375457 20.0587 1.11855L20.055 1.11464C21.8656 1.88511 23.4895 3.01539 24.8783 4.47029L33 12.9787L41.118 4.4742C42.5105 3.01539 44.1307 1.88902 45.9413 1.11855C47.6885 0.375457 49.5327 0 51.4254 0C53.3182 0 55.1624 0.375457 56.9096 1.11464C58.7202 1.88511 60.3441 3.01539 61.7329 4.47029C63.1217 5.92909 64.2006 7.63038 64.9323 9.52331C65.6416 11.3537 66 13.2857 66 15.2686C66 17.2515 65.6416 19.1835 64.9323 21.0139C64.1968 22.9107 63.1179 24.612 61.7292 26.0669L41.4091 47.3545L33 38.5449L24.5909 47.3545L4.27083 26.0669C2.87833 24.6081 1.80316 22.9107 1.06771 21.0139C0.358391 19.1835 0 17.2515 0 15.2686C0 13.2857 0.358391 11.3537 1.06397 9.52331C1.79942 7.62647 2.87833 5.92518 4.26709 4.47029C5.65959 3.01539 7.28355 1.88511 9.09044 1.11855C10.8376 0.375457 12.6856 0 14.5746 0ZM22.9072 10.6731L29.054 17.1126L20.7979 25.7618L29.0502 34.4071L24.5871 39.0827L10.188 23.998C8.48939 22.2185 7.55235 19.8523 7.55235 17.3375C7.55235 14.8188 8.48939 12.4566 10.188 10.6731C11.8866 8.89364 14.1453 7.91197 16.5457 7.91197C18.9462 7.91197 21.2048 8.89364 22.9072 10.6731ZM28.69 25.7579L32.9981 30.2712L37.3063 25.7579L32.9981 21.2446L28.69 25.7579ZM45.2021 25.7618L36.9479 34.4091L41.4091 39.0827L55.8083 23.998C57.5069 22.2145 58.4439 19.8484 58.4439 17.3336C58.4439 14.8188 57.5069 12.4527 55.8083 10.6731C54.1059 8.89364 51.8473 7.91197 49.4468 7.91197C47.0463 7.91197 44.7877 8.89364 43.0891 10.6731L36.9442 17.1107L45.2021 25.7618Z" fill="#3B4F7D"/>
<path d="M28.5918 51.4148L32.9686 46.8296L37.3454 51.4148L32.9686 56L28.5918 51.4148Z" fill="#3B4F7D"/>
</svg>
