<svg width="12" height="11" viewBox="0 0 12 11" fill="none" xmlns="http://www.w3.org/2000/svg">
<path fill-rule="evenodd" clip-rule="evenodd" d="M10.3606 0.462945C10.4958 0.401071 10.6439 0.379731 10.7893 0.401146C10.9347 0.422562 11.0722 0.485949 11.1874 0.584711C11.3026 0.683473 11.3914 0.814 11.4444 0.962704C11.4975 1.11141 11.5129 1.27286 11.4891 1.43024L10.2478 9.61417C10.1274 10.4036 9.33057 10.8563 8.66451 10.4631C8.10737 10.1341 7.27985 9.62726 6.53553 9.0984C6.16337 8.83368 5.02335 7.98595 5.16346 7.38273C5.28386 6.86696 7.1994 4.9288 8.29399 3.7765C8.72362 3.32378 8.52769 3.06262 8.02035 3.47905C6.76047 4.51297 4.73766 6.08527 4.06886 6.52787C3.47888 6.91812 3.17129 6.98475 2.80351 6.91812C2.13253 6.79676 1.51025 6.60878 1.00236 6.37975C0.316047 6.0704 0.349432 5.04481 1.00181 4.74617L10.3606 0.462945Z" fill="white"/>
</svg>
